<?xml version="1.0" encoding="UTF-8"?>
<svg id="Layer_1" data-name="Layer 1" xmlns="http://www.w3.org/2000/svg" viewBox="0 0 286.95 58.37">
  <defs>
    <style>
      .cls-1 {
        fill: #c82128;
      }

      .cls-2 {
        fill: #295aa9;
      }

      .cls-3 {
        fill: #247841;
      }
    </style>
  </defs>
  <polygon class="cls-3" points="7.71 50.72 7.71 0 .1 0 0 58.26 7.71 58.26 7.71 58.23 43.59 58.23 43.59 50.76 7.71 50.72"/>
  <polygon class="cls-3" points="7.58 50.85 7.59 .02 .09 .02 .07 50.85 .04 50.85 .04 58.35 43.56 58.37 43.57 50.86 7.58 50.85"/>
  <path d="M74.53,28.64c1.7-.64,2.88-1.44,3.54-2.42.65-.97.98-2.12.98-3.46,0-2.18-.8-3.95-2.4-5.31-1.6-1.36-3.91-2.04-6.95-2.04h-9.43v27.96h10.43c3.04,0,5.45-.7,7.23-2.1,1.78-1.4,2.68-3.27,2.68-5.61,0-1.73-.44-3.2-1.32-4.41-.88-1.21-2.46-2.08-4.75-2.62ZM65.87,20.41h3.32c1.52,0,2.6.3,3.24.9.64.6.96,1.38.96,2.34,0,1.12-.32,1.95-.96,2.5-.64.55-1.72.82-3.24.82h-3.32v-6.55ZM73.7,37.49c-.83.57-2,.86-3.52.86h-4.31v-6.83h4.31c1.52,0,2.69.29,3.52.88.83.59,1.24,1.39,1.24,2.4,0,1.23-.41,2.12-1.24,2.7Z"/>
  <path d="M90.15,23.15c-1.07.79-1.77,1.92-2.12,3.42v-3.95h-5.23v20.77h5.39v-10.63c0-1.73.53-3.09,1.6-4.07,1.06-.99,2.37-1.48,3.91-1.48h.76v-5.07c-1.81-.11-3.25.23-4.31,1.02Z"/>
  <rect x="96.27" y="22.61" width="5.39" height="20.77"/>
  <path d="M112.13,27.82c.85-.55,1.85-.82,3-.82.93,0,1.78.21,2.54.64.76.43,1.38,1,1.86,1.72l4.15-3.4c-.88-1.22-2.06-2.18-3.56-2.88-1.49-.69-3.18-1.02-5.07-1-2.1,0-3.99.49-5.65,1.48-1.67.99-2.97,2.3-3.92,3.93-.95,1.64-1.42,3.47-1.42,5.49,0,1.52.27,2.94.82,4.25.55,1.32,1.31,2.48,2.3,3.48.98,1,2.12,1.78,3.42,2.34,1.29.56,2.68.84,4.17.84,2.05,0,3.8-.35,5.25-1.06,1.45-.71,2.67-1.68,3.65-2.94l-3.91-3.4c-.53.72-1.16,1.31-1.88,1.78-.72.47-1.6.7-2.64.7-1.15,0-2.15-.27-3.02-.82-.87-.55-1.54-1.28-2.04-2.2-.49-.92-.74-1.91-.74-2.98s.23-2.09.7-3c.47-.91,1.12-1.63,1.98-2.18Z"/>
  <polygon points="146.64 22.61 138.97 22.61 131.18 31 131.18 14.22 125.79 14.22 125.79 43.38 131.18 43.38 131.18 33.51 139.53 43.38 146.68 43.38 136.85 32.28 146.64 22.61"/>
  <polygon points="154.07 15.42 148.48 15.42 148.48 43.38 164.5 43.38 164.5 38.35 154.07 38.35 154.07 15.42"/>
  <path d="M187.31,43.38v-20.77h-5.35v3.28c-.56-1.12-1.35-2.02-2.36-2.7-1.01-.68-2.42-1.02-4.23-1.02-1.44,0-2.78.29-4.01.86-1.24.57-2.32,1.36-3.26,2.36-.93,1-1.66,2.16-2.2,3.48-.53,1.32-.8,2.72-.8,4.21,0,2,.46,3.81,1.38,5.45.92,1.64,2.16,2.94,3.72,3.92,1.56.97,3.28,1.46,5.17,1.46s3.31-.36,4.33-1.08c1.03-.72,1.82-1.66,2.38-2.84v3.4h5.23ZM181.36,36.03c-.48.91-1.15,1.63-2.02,2.18-.87.55-1.9.82-3.1.82s-2.15-.28-3.02-.84c-.87-.56-1.54-1.3-2.02-2.22-.48-.92-.72-1.9-.72-2.94,0-1.09.24-2.09.72-3,.48-.91,1.15-1.63,2.02-2.18.86-.55,1.87-.82,3.02-.82s2.23.28,3.1.84c.86.56,1.54,1.29,2.02,2.2.48.91.72,1.9.72,3s-.24,2.05-.72,2.96Z"/>
  <path d="M205.37,22.61l-4.04,11.87c-.37,1.07-.67,2.17-.88,3.32-.21-1.14-.51-2.25-.88-3.32l-4.03-11.87h-6.51l8.23,19.81-.28.88c-.29.91-.77,1.66-1.44,2.26-.67.6-1.52.9-2.56.9-.66,0-1.27-.07-1.86-.18v5.32c.14.02.27.04.42.05.67.05,1.26.08,1.8.08,2.45,0,4.38-.65,5.79-1.94,1.41-1.29,2.56-2.99,3.44-5.09l9.19-22.09h-6.39Z"/>
  <path d="M227.44,23.61c-1.66-.98-3.57-1.48-5.73-1.48s-4.03.49-5.71,1.48c-1.68.99-2.99,2.3-3.94,3.95-.95,1.65-1.42,3.48-1.42,5.47s.47,3.82,1.42,5.45c.95,1.64,2.26,2.95,3.94,3.93,1.68.99,3.58,1.48,5.71,1.48s4.07-.49,5.73-1.48c1.66-.98,2.97-2.3,3.92-3.93.94-1.64,1.42-3.46,1.42-5.45s-.47-3.82-1.42-5.47c-.95-1.65-2.25-2.97-3.92-3.95ZM226.68,35.99c-.47.91-1.13,1.63-1.98,2.18-.85.55-1.85.82-3,.82s-2.14-.27-3-.82c-.85-.55-1.51-1.27-1.98-2.18-.47-.91-.7-1.89-.7-2.96s.23-2.09.7-3c.47-.91,1.12-1.63,1.98-2.18.85-.55,1.85-.82,3-.82s2.14.27,3,.82c.85.55,1.51,1.27,1.98,2.18.47.91.7,1.9.7,3s-.23,2.05-.7,2.96Z"/>
  <path d="M248.83,33.99c0,1.78-.43,3.09-1.3,3.91-.87.83-1.87,1.24-3.02,1.24-1.33,0-2.36-.41-3.08-1.24-.72-.82-1.08-2.13-1.08-3.91v-11.39h-5.39v12.7c0,1.73.35,3.24,1.04,4.53.69,1.29,1.64,2.28,2.84,2.98,1.2.69,2.54,1.04,4.03,1.04,1.62,0,2.92-.3,3.9-.9.97-.6,1.71-1.5,2.22-2.7v3.12h5.23v-20.77h-5.39v11.39Z"/>
  <path d="M265.05,17.85l-5.39.56v4.19h-2.92v4.59h2.92v9.75c0,2.26.55,3.9,1.64,4.91,1.09,1.01,2.66,1.52,4.71,1.52h2.96v-4.79h-2.24c-1.12,0-1.68-.64-1.68-1.92v-9.47h4.39v-4.59h-4.39v-4.75Z"/>
  <path d="M286.35,34.35c-.4-.85-1.13-1.62-2.2-2.3-1.07-.68-2.61-1.27-4.63-1.78-1.23-.32-2-.65-2.32-.98-.32-.33-.48-.67-.48-1.02,0-.64.25-1.1.74-1.4.49-.29,1.11-.44,1.86-.44.69,0,1.35.17,1.98.52.63.35,1.19.92,1.7,1.72l3.91-3c-1.07-1.38-2.2-2.33-3.4-2.84-1.2-.51-2.64-.76-4.31-.76-2.42,0-4.32.61-5.69,1.82-1.37,1.21-2.06,2.72-2.06,4.53,0,.88.15,1.73.44,2.56.29.83.89,1.57,1.8,2.24.91.67,2.29,1.23,4.15,1.68,1.09.24,1.91.48,2.46.72s.91.49,1.08.76c.17.27.26.59.26.96,0,.61-.25,1.13-.74,1.54-.49.41-1.21.62-2.14.62-1.73,0-3.36-.85-4.87-2.56l-3.64,3.32c2.26,2.42,5.14,3.64,8.63,3.64,1.54,0,2.92-.29,4.13-.88,1.21-.59,2.17-1.38,2.88-2.4.71-1.01,1.06-2.16,1.06-3.44,0-1.04-.2-1.98-.6-2.84Z"/>
  <path class="cls-1" d="M15.31,22.56v20.63h20.83v-20.63H15.31ZM20.48,41.04c-1.59,0-2.87-1.31-2.87-2.92s1.29-2.92,2.87-2.92,2.87,1.31,2.87,2.92-1.29,2.92-2.87,2.92ZM20.5,30.65c-1.59,0-2.87-1.31-2.87-2.92s1.29-2.92,2.87-2.92,2.87,1.31,2.87,2.92-1.29,2.92-2.87,2.92ZM30.88,41.08c-1.59,0-2.87-1.31-2.87-2.92s1.29-2.92,2.87-2.92,2.87,1.31,2.87,2.92-1.29,2.92-2.87,2.92ZM30.9,30.63c-1.59,0-2.87-1.31-2.87-2.92s1.29-2.92,2.87-2.92,2.87,1.31,2.87,2.92-1.29,2.92-2.87,2.92ZM98.92,19.74c-1.59,0-2.87-1.31-2.87-2.92s1.29-2.92,2.87-2.92,2.87,1.31,2.87,2.92-1.29,2.92-2.87,2.92Z"/>
  <polygon class="cls-2" points="51.2 14.4 51.2 7.48 22.8 7.48 22.8 .04 15.29 .04 15.29 7.48 15.29 7.48 15.29 15.1 43.59 15.1 43.59 50.77 51.2 50.77 51.2 14.4 51.2 14.4"/>
</svg>