<?xml version="1.0" encoding="UTF-8"?>
<svg id="Layer_1" data-name="Layer 1" xmlns="http://www.w3.org/2000/svg" viewBox="68.34 57.75 151.32 172.5">
  <defs>
    <style>
      .cls-1 {
        fill: #c82128;
      }

      .cls-2 {
        fill: #295aa9;
      }

      .cls-3 {
        fill: #247841;
      }
    </style>
  </defs>
  <polygon class="cls-3" points="91.11 207.65 91.11 57.75 68.64 57.75 68.34 229.94 91.11 229.94 91.11 229.84 197.17 229.85 197.16 207.77 91.11 207.65"/>
  <polygon class="cls-3" points="90.73 208.04 90.78 57.82 68.61 57.81 68.56 208.03 68.45 208.03 68.45 230.2 197.09 230.25 197.09 208.07 90.73 208.04"/>
  <path class="cls-1" d="M113.59,124.43v60.98h61.57v-60.98h-61.57ZM128.85,179.05c-4.69,0-8.49-3.87-8.49-8.64s3.8-8.64,8.49-8.64,8.49,3.87,8.49,8.64-3.8,8.64-8.49,8.64ZM128.91,148.33c-4.69,0-8.49-3.87-8.49-8.64s3.8-8.64,8.49-8.64,8.49,3.87,8.49,8.64-3.8,8.64-8.49,8.64ZM159.59,179.16c-4.69,0-8.49-3.87-8.49-8.64s3.8-8.64,8.49-8.64,8.49,3.87,8.49,8.64-3.8,8.64-8.49,8.64ZM159.66,148.27c-4.69,0-8.49-3.87-8.49-8.64s3.8-8.64,8.49-8.64,8.49,3.87,8.49,8.64-3.8,8.64-8.49,8.64Z"/>
  <polygon class="cls-2" points="219.65 100.32 219.65 79.86 135.71 79.86 135.71 57.87 113.53 57.87 113.53 79.86 113.52 79.86 113.52 102.37 197.15 102.37 197.15 207.79 219.66 207.79 219.66 100.32 219.65 100.32"/>
</svg>